<?xml version="1.0" encoding="UTF-8" standalone="no"?>
<svg
   version="1.1"
   width="1000pt"
   height="172.95157pt"
   viewBox="0 0 1000 172.95157"
   id="svg16"
   sodipodi:docname="Ufotable.svg"
   inkscape:version="1.1.2 (b8e25be833, 2022-02-05)"
   xmlns:inkscape="http://www.inkscape.org/namespaces/inkscape"
   xmlns:sodipodi="http://sodipodi.sourceforge.net/DTD/sodipodi-0.dtd"
   xmlns="http://www.w3.org/2000/svg"
   xmlns:svg="http://www.w3.org/2000/svg">
  <defs
     id="defs20">
    <clipPath
       id="cp0">
      <path
         transform="matrix(1,0,0,-1,0,429.42)"
         d="M 0,429.42 H 1019.873 V 0 H 0 Z"
         id="path4" />
    </clipPath>
    <clipPath
       clipPathUnits="userSpaceOnUse"
       id="clipPath1416">
      <g
         inkscape:label="Clip"
         id="use1418">
        <g
           id="g1428"
           style="opacity:0.349162">
          <path
             style="color:#000000;fill:#0000ff;-inkscape-stroke:none;paint-order:stroke fill markers"
             d="m 354.35352,309.28711 c -13.46943,0 -26.98633,9.23926 -26.98633,23.94141 0,14.70214 13.51691,23.93945 26.98633,23.93945 13.46941,0 26.98632,-9.2373 26.98632,-23.93945 0,-14.70216 -13.5169,-23.94141 -26.98632,-23.94141 z m 0,23.75391 c 0.67437,0 1.1381,0.0898 1.56054,0.18554 -0.42247,0.0958 -0.88607,0.1875 -1.56054,0.1875 -0.67462,0 -1.13999,-0.0917 -1.5625,-0.1875 0.42248,-0.0958 0.88798,-0.18554 1.5625,-0.18554 z"
             id="path1424" />
          <path
             style="color:#000000;fill:#000000;stroke-width:23.753;-inkscape-stroke:none;paint-order:stroke fill markers"
             d="m 354.35337,321.1645 c -8.34524,0 -15.11037,5.40092 -15.11037,12.06329 0,6.66237 6.76513,12.06328 15.11037,12.06328 8.34523,0 15.11037,-5.40091 15.11037,-12.06328 0,-6.66237 -6.76514,-12.06329 -15.11037,-12.06329 z"
             id="path1426" />
        </g>
      </g>
    </clipPath>
  </defs>
  <sodipodi:namedview
     id="namedview18"
     pagecolor="#ffffff"
     bordercolor="#666666"
     borderopacity="1.0"
     inkscape:pageshadow="2"
     inkscape:pageopacity="0.0"
     inkscape:pagecheckerboard="0"
     inkscape:document-units="pt"
     showgrid="false"
     inkscape:zoom="0.5"
     inkscape:cx="669"
     inkscape:cy="70"
     inkscape:window-width="1366"
     inkscape:window-height="705"
     inkscape:window-x="-8"
     inkscape:window-y="-8"
     inkscape:window-maximized="1"
     inkscape:current-layer="svg16" />
  <g
     id="g49622">
    <g
       id="g49525"
       transform="matrix(1.3150257,0,0,1.3150257,-151.6832,-323.33644)">
      <path
         id="path44484"
         style="color:#000000;display:inline;opacity:1;fill:#fd9753;fill-opacity:1;stroke-width:0.993937;-inkscape-stroke:none;paint-order:stroke fill markers"
         d="m 733.58198,245.87842 c -38.70266,0 -70.82498,29.86988 -70.82498,65.75976 0,35.88989 32.12232,65.75977 70.82498,65.75977 38.70271,0 70.8235,-29.86989 70.8235,-65.75977 0,-35.88989 -32.12079,-65.75976 -70.8235,-65.75976 z" />
      <path
         style="color:#000000;display:inline;opacity:1;fill:#fefe72;fill-opacity:1;stroke-width:37.6864;-inkscape-stroke:none;paint-order:stroke fill markers"
         d="m 784.27441,311.63751 a 50.693096,49.26547 0 0 1 -50.69309,49.26547 50.693096,49.26547 0 0 1 -50.69309,-49.26547 50.693096,49.26547 0 0 1 50.69309,-49.26547 50.693096,49.26547 0 0 1 50.69309,49.26547 z"
         id="path44486" />
    </g>
    <g
       id="g41216"
       style="display:inline;fill:#ae0002;fill-opacity:1"
       transform="matrix(1.3150257,0,0,1.3150257,-151.6832,-323.33644)">
      <path
         id="path27091"
         style="font-weight:800;font-size:166.517px;line-height:1.25;font-family:'Galano Grotesque';-inkscape-font-specification:'Galano Grotesque Ultra-Bold';opacity:1;fill:#ae0002;fill-opacity:1;stroke-width:5.5506"
         d="m 153.79492,381.60742 v 26.03906 h 15.26563 V 460.168 c 0,14.42123 16.08209,33.82641 38.43164,33.82641 H 214.58 c 21.12672,0 26.61637,-5.08815 34.14656,-14.65574 v 14.452 h 56.64677 v -26.10122 h -8.59466 v -86.08203 h -65.63414 v 26.03906 h 17.58203 V 436 c 0,13.92969 -2.22546,16.75781 -13.72656,16.75781 h -3.76758 c -11.60959,0 -12.0293,-6.10073 -12.0293,-16.75781 v -54.39258 z"
         transform="scale(0.75)"
         sodipodi:nodetypes="cccssscccccccccsssscc" />
      <path
         id="path27093"
         style="font-weight:800;font-size:166.517px;line-height:1.25;font-family:'Galano Grotesque';-inkscape-font-specification:'Galano Grotesque Ultra-Bold';display:inline;opacity:1;fill:#ae0002;fill-opacity:1;stroke-width:5.5506"
         d="m 360.66843,336.22852 c -14.58088,0 -24.92555,6.55235 -25.02411,22.9414 v 22.17188 h -15.41297 v 26.2832 h 16.47963 v 60.06445 h -15.81166 v 26.10122 h 80.99401 V 467.68945 H 378.44901 V 407.625 h 24.11117 v -26.2832 h -24.11117 v -6.84047 c 0,-9.80162 2.07827,-13.94469 11.50021,-13.94469 h 12.61096 v -24.32812 z"
         transform="scale(0.75)"
         sodipodi:nodetypes="ssccccccccccccccssccs" />
      <path
         id="path27095"
         style="font-weight:800;font-size:166.517px;line-height:1.25;font-family:'Galano Grotesque';-inkscape-font-specification:'Galano Grotesque Ultra-Bold';display:inline;opacity:1;fill:#ae0002;fill-opacity:1;stroke-width:5.80968"
         d="m 592.85938,335.94727 -45.61805,28.3994 v 16.99513 h -19.79406 v 26.2832 h 19.79406 v 58.98567 c 0,13.19688 8.41459,28.25066 32.42,28.25066 14.00541,0 26.41427,-1.75436 36.05867,-9.96 V 457.312 c -4.48549,2.74595 -11.81926,5.6463 -16.79867,5.6463 -3.21794,0 -5.26049,-0.58125 -6.06195,-1.90594 V 407.625 H 615.72 v -26.28367 l -22.86062,4.7e-4 z"
         transform="scale(0.75)"
         sodipodi:nodetypes="ccccccssccscccccc" />
      <path
         id="path27097"
         style="font-weight:bold;font-size:166.517px;line-height:1.25;font-family:'Galano Grotesque Alt';-inkscape-font-specification:'Galano Grotesque Alt Bold';display:inline;opacity:1;fill:#ae0002;fill-opacity:1;stroke-width:5.83191"
         d="m 687.86719,381.3418 c -29.29388,-10e-6 -52.70246,11.48838 -53.70703,37.83203 h 42 c 1.74622,-8.6999 7.13043,-10.32336 15.09179,-10.35742 l 7.76367,-0.0332 c 9.2804,-0.0397 16.06836,4.10279 16.06836,13.67774 v 8.35156 c -4.37645,-3.67766 -8.64776,-5.73242 -17.8164,-5.73242 H 675.8457 c -13.84302,0 -41.3243,11.02898 -41.58398,39.28711 -0.1928,20.98074 19.0569,29.89453 41.25781,29.89453 h 10.73438 c 15.73459,0 20.95608,-0.94353 28.83007,-8.08008 v 7.60902 h 49.90235 v -26.10121 h -8.95703 v -52.69531 c 0,-13.91889 -14.99406,-33.65233 -45.30274,-33.65234 z m 10.91246,63.5982 c 11.64459,0 16.48938,4.37069 16.30433,11.49555 -0.18505,7.12486 -4.7361,11.49609 -16.37331,11.49609 H 694.996 c -10.88506,0 -16.21406,-2.12224 -16.50772,-9.89648 C 678.25653,451.89999 686.0716,444.94 694.996,444.94 Z"
         transform="scale(0.75)"
         sodipodi:nodetypes="sccssscssssscccccssssssssss" />
      <path
         id="path27099"
         style="font-weight:800;font-size:166.517px;line-height:1.25;font-family:'Galano Grotesque';-inkscape-font-specification:'Galano Grotesque Ultra-Bold';display:inline;opacity:1;fill:#ae0002;fill-opacity:1;stroke-width:5.44856"
         d="m 782.49067,336.87305 v 29.59375 h 13.24175 v 100.68945 h -13.24175 v 26.63442 h 64.39605 v -7.86879 c 7.70638,6.50652 10.45379,8.2871 24.49609,8.2871 h 6.02735 c 25.48176,0 51.91015,-14.88803 51.91015,-44.30664 v -17.71875 c 0,-36.3694 -24.53641,-50.84179 -49.33203,-50.84179 h -3.91211 c -13.51233,0 -22.05068,4.35935 -29.18945,10.79101 v -55.25976 z m 82.9605,79.26953 c 12.06148,0 17.11914,5.03761 17.11914,16.13086 v 21.10351 c 0,10.63358 -7.69715,14.53125 -17.91992,14.53125 -11.90825,0 -17.76367,-7.98777 -17.76367,-15.86328 v -18.4375 c 0,-10.94004 6.50297,-17.46484 18.56445,-17.46484 z"
         transform="scale(0.75)"
         sodipodi:nodetypes="ccccccccsssssscccsssssss" />
      <path
         id="path27101"
         style="font-weight:800;font-size:166.517px;line-height:1.25;font-family:'Galano Grotesque';-inkscape-font-specification:'Galano Grotesque Ultra-Bold';opacity:1;fill:#ae0002;fill-opacity:1;stroke-width:4.51327"
         d="m 707.515,252.65479 v 21.77929 h 8.25454 v 76.33301 H 707.515 v 19.5293 h 51.46595 v -19.5293 h -5.9121 v -98.1123 z"
         sodipodi:nodetypes="ccccccccccc" />
      <path
         id="path27103"
         style="font-weight:800;font-size:166.517px;line-height:1.25;font-family:'Galano Grotesque';-inkscape-font-specification:'Galano Grotesque Ultra-Bold';display:inline;opacity:1;fill:#ae0002;fill-opacity:1;stroke-width:5.76333"
         d="m 1095.228,381.33398 c -36.0209,0 -62.8013,23.6514 -62.8013,54.17188 v 11.09147 c 0,29.83977 31.6501,47.42 62.8013,47.42 h 9.2587 c 35.2135,0 49.143,-10.73203 60.9684,-31.7771 l -48.5391,-6.60937 c -2.5449,7.4419 -10.3948,11.95312 -16.7207,11.95312 h -3.3535 c -8.5201,0 -16.1797,-7.69281 -16.1797,-16.71289 v -5.33398 h 87.0547 V 435.2168 c 0,-36.48266 -25.8324,-53.88282 -63.2301,-53.88282 z m 0.2798,27.61524 h 7.0898 c 8.52,0 14.8093,7.42094 14.7117,15.91601 h -36.6472 c 0.75,-8.02008 5.0756,-15.91601 14.8457,-15.91601 z"
         transform="scale(0.75)"
         sodipodi:nodetypes="sssssccsssccsssssccs" />
    </g>
    <g
       id="g25812"
       style="display:inline"
       transform="matrix(1.3150257,0,0,1.3150257,-151.6832,-323.33644)">
      <path
         style="display:inline;opacity:1;fill:#029ffe;fill-opacity:1;stroke-width:56.0192;paint-order:stroke fill markers"
         d="m 354.25275,296.30107 c -26.73386,-2e-5 -48.40575,16.54542 -48.40575,36.95518 0,20.40975 21.67189,36.95477 48.40575,36.95475 26.73387,2e-5 48.40577,-16.54499 48.40577,-36.95475 0,-20.40977 -21.6719,-36.9552 -48.40577,-36.95518 z"
         id="path2704" />
      <path
         style="display:inline;opacity:1;fill:#fe4d53;fill-opacity:1;stroke-width:56.0192;paint-order:stroke fill markers"
         d="m 354.25275,309.09018 c 14.53599,0 29.12256,9.32652 29.12256,24.16755 0,14.84101 -14.5866,24.16607 -29.12256,24.16607 -14.53596,0 -29.12256,-9.32506 -29.12256,-24.16607 0,-14.84103 14.58659,-24.16755 29.12256,-24.16755 z"
         id="path18355" />
      <path
         style="display:inline;opacity:1;fill:#b62c01;fill-opacity:1;stroke-width:56.0192;paint-order:stroke fill markers"
         d="m 354.25275,321.07932 c -8.34523,0 -15.10986,5.45311 -15.10986,12.17841 0,6.7253 6.76463,12.17693 15.10986,12.17693 8.34525,0 15.10987,-5.45163 15.10987,-12.17693 0,-6.7253 -6.76462,-12.17841 -15.10987,-12.17841 z"
         id="path18357" />
    </g>
  </g>
</svg>
